<?xml version="1.0" encoding="utf-8"?>
<!-- Generator: Adobe Illustrator 18.1.1, SVG Export Plug-In . SVG Version: 6.00 Build 0)  -->
<svg version="1.1" id="Ebene_1" xmlns="http://www.w3.org/2000/svg" xmlns:xlink="http://www.w3.org/1999/xlink" x="0px" y="0px"
	 viewBox="299 865 109.7 104.8" enable-background="new 299 865 109.7 104.8" xml:space="preserve">
<g>
	<path fill="#7EB5BB" d="M235.8,493.1c-16.3,11-28.6,19.5-37,25.6c-2.8,2.1-5.1,3.7-6.9,4.9c-1.8,1.2-4.1,2.4-7,3.6
		c-2.9,1.2-5.6,1.8-8.2,1.8h-0.1h-0.1c-2.5,0-5.3-0.6-8.2-1.8c-2.9-1.2-5.3-2.4-7-3.6c-1.8-1.2-4.1-2.8-6.9-4.9
		c-6.7-4.9-19-13.5-36.9-25.6c-2.8-1.9-5.3-4-7.5-6.5v59c0,3.3,1.2,6.1,3.5,8.4c2.3,2.3,5.1,3.5,8.4,3.5h109.4
		c3.3,0,6.1-1.2,8.4-3.5c2.3-2.3,3.5-5.1,3.5-8.4v-59C241.1,489,238.6,491.2,235.8,493.1L235.8,493.1L235.8,493.1z"/>
	<path fill="#7EB5BB" d="M239.7,456.4c-2.4-2.3-5.1-3.5-8.4-3.5H121.9c-3.8,0-6.8,1.3-8.8,3.9c-2.1,2.6-3.1,5.8-3.1,9.7
		c0,3.1,1.4,6.5,4.1,10.1c2.7,3.6,5.6,6.5,8.7,8.6c1.7,1.2,6.8,4.7,15.2,10.6c8.5,5.9,15,10.4,19.5,13.6c0.5,0.3,1.5,1.1,3.2,2.3
		c1.6,1.2,2.9,2.1,4,2.8c1.1,0.7,2.4,1.5,3.9,2.4c1.5,0.9,2.9,1.6,4.3,2c1.3,0.4,2.6,0.7,3.7,0.7h0.1h0.1c1.1,0,2.4-0.2,3.7-0.7
		c1.3-0.4,2.8-1.1,4.3-2c1.5-0.9,2.8-1.7,3.9-2.4c1.1-0.7,2.4-1.7,4-2.8c1.6-1.2,2.7-1.9,3.2-2.3c4.6-3.2,16.2-11.2,34.8-24.2
		c3.6-2.5,6.6-5.6,9.1-9.1c2.4-3.6,3.6-7.3,3.6-11.2C243.2,461.5,242,458.7,239.7,456.4L239.7,456.4z"/>
	<polygon fill="#7EB5BB" points="465.9,481.1 465.9,551.8 489.4,551.8 489.4,481.1 	"/>
	<path fill="#7EB5BB" d="M487.3,450.5c-2.4-2.3-5.5-3.5-9.5-3.5c-4,0-7.2,1.2-9.6,3.5c-2.5,2.3-3.7,5.2-3.7,8.7
		c0,3.5,1.2,6.4,3.6,8.7c2.4,2.3,5.5,3.5,9.4,3.5h0.1c4,0,7.2-1.2,9.7-3.5c2.5-2.3,3.7-5.2,3.6-8.7
		C490.9,455.7,489.7,452.8,487.3,450.5L487.3,450.5z"/>
	<path fill="#7EB5BB" d="M566.8,487.5c-5-5.4-11.5-8.1-19.6-8.1c-3,0-5.7,0.4-8.2,1.1c-2.5,0.7-4.5,1.8-6.2,3.1
		c-1.7,1.3-3,2.6-4,3.7c-1,1.1-2,2.5-2.9,4h0.1v-10.3h-23.5l0.1,3.4c0,2.3,0.1,9.3,0.1,21.1c0,11.8,0,27.2-0.1,46.2h23.5v-39.5
		c0-2.4,0.3-4.4,0.8-5.8c1-2.4,2.5-4.5,4.5-6.1c2-1.6,4.5-2.5,7.5-2.5c4.1,0,7.1,1.4,9,4.2c1.9,2.8,2.9,6.7,2.9,11.7v37.8h23.5
		v-40.6C574.2,500.8,571.7,492.9,566.8,487.5L566.8,487.5z"/>
	<path fill="#7EB5BB" d="M346.8,490.5c0,0-0.1-0.1-10.8-18.8c-0.8-1.4-2-3-4.3-3H316c-0.9,0-1.7,0.3-2.1,1c-0.5,0.7-0.4,1.6,0.1,2.4
		l10.6,18.3c0.1,0.1,0.1,0.1,0,0.1L308,519.9c-0.5,0.9-0.4,1.7,0,2.4c0.4,0.7,1.1,1.1,2,1.1h15.7c2.3,0,3.4-1.6,4.3-3
		C346.2,491.6,346.8,490.5,346.8,490.5L346.8,490.5z M399.7,448.3c-0.4-0.7-1.1-1-2-1h-15.8c-2.4,0-3.4,1.4-4.2,3
		c-33.7,59.9-34.9,61.9-34.9,61.9s0,0.1,22.3,40.8c0.7,1.4,2,3,4.3,3h15.7c0.9,0,1.6-0.3,2.1-1c0.4-0.7,0.4-1.6-0.1-2.4l-22.1-40.4
		c-0.1,0-0.1-0.1,0-0.1l34.7-61.3C400.2,449.9,400.2,449,399.7,448.3L399.7,448.3z"/>
</g>
<path fill="#7EB5BB" d="M20.3,924.4c-16.3,11-28.6,19.5-37,25.6c-2.8,2.1-5.1,3.7-6.9,4.9c-1.8,1.2-4.1,2.4-7,3.6
	c-2.9,1.2-5.6,1.8-8.2,1.8h-0.1H-39c-2.5,0-5.3-0.6-8.2-1.8c-2.9-1.2-5.3-2.4-7-3.6c-1.8-1.2-4.1-2.8-6.9-4.9
	c-6.7-4.9-19-13.5-36.9-25.6c-2.8-1.9-5.3-4-7.5-6.5v59c0,3.3,1.2,6.1,3.5,8.4c2.3,2.3,5.1,3.5,8.4,3.5H15.8c3.3,0,6.1-1.2,8.4-3.5
	c2.3-2.3,3.5-5.1,3.5-8.4v-59C25.6,920.3,23.1,922.4,20.3,924.4L20.3,924.4L20.3,924.4z"/>
<path fill="#7EB5BB" d="M24.2,887.6c-2.4-2.3-5.1-3.5-8.4-3.5H-93.6c-3.8,0-6.8,1.3-8.8,3.9c-2.1,2.6-3.1,5.8-3.1,9.7
	c0,3.1,1.4,6.5,4.1,10.1c2.7,3.6,5.6,6.5,8.7,8.6c1.7,1.2,6.8,4.7,15.2,10.6c8.5,5.9,15,10.4,19.5,13.6c0.5,0.3,1.5,1.1,3.2,2.3
	c1.6,1.2,2.9,2.1,4,2.8c1.1,0.7,2.4,1.5,3.9,2.4c1.5,0.9,2.9,1.6,4.3,2c1.3,0.4,2.6,0.7,3.7,0.7h0.1h0.1c1.1,0,2.4-0.2,3.7-0.7
	c1.3-0.4,2.8-1.1,4.3-2c1.5-0.9,2.8-1.7,3.9-2.4c1.1-0.7,2.4-1.7,4-2.8c1.6-1.2,2.7-1.9,3.2-2.3c4.6-3.2,16.2-11.2,34.8-24.2
	c3.6-2.5,6.6-5.6,9.1-9.1c2.4-3.6,3.6-7.3,3.6-11.2C27.7,892.8,26.5,890,24.2,887.6L24.2,887.6z"/>
<path fill="#7EB5BB" d="M796,923.3c0,0-0.1-0.1-10.8-18.8c-0.8-1.4-2-3-4.3-3h-15.7c-0.9,0-1.7,0.3-2.1,1c-0.5,0.7-0.4,1.6,0.1,2.4
	l10.6,18.3c0.1,0.1,0.1,0.1,0,0.1l-16.6,29.4c-0.5,0.9-0.4,1.7,0,2.4c0.4,0.7,1.1,1.1,2,1.1h15.7c2.3,0,3.4-1.6,4.3-3
	C795.3,924.5,796,923.3,796,923.3L796,923.3z M848.9,881.2c-0.4-0.7-1.1-1-2-1H831c-2.4,0-3.3,1.4-4.2,3C793.1,943,792,945,792,945
	s0,0.1,22.3,40.8c0.7,1.4,2,3,4.3,3h15.7c0.9,0,1.6-0.3,2.1-1c0.4-0.7,0.4-1.6-0.1-2.4L814.2,945c-0.1,0-0.1-0.1,0-0.1l34.7-61.3
	C849.3,882.8,849.3,881.8,848.9,881.2L848.9,881.2z"/>
<polygon fill="#7EB5BB" points="300.4,899.1 300.4,969.9 323.9,969.9 323.9,899.1 "/>
<path fill="#7EB5BB" d="M321.8,868.5c-2.4-2.3-5.5-3.5-9.5-3.5c-4,0-7.2,1.2-9.6,3.5c-2.5,2.3-3.7,5.2-3.7,8.7
	c0,3.5,1.2,6.4,3.6,8.7c2.4,2.3,5.5,3.5,9.4,3.5h0.1c4,0,7.2-1.2,9.7-3.5c2.5-2.3,3.7-5.2,3.6-8.7
	C325.4,873.7,324.2,870.8,321.8,868.5L321.8,868.5z"/>
<path fill="#7EB5BB" d="M401.3,905.6c-5-5.4-11.5-8.1-19.6-8.1c-3,0-5.7,0.4-8.2,1.1c-2.5,0.7-4.5,1.8-6.2,3.1c-1.7,1.3-3,2.6-4,3.7
	c-1,1.1-2,2.5-2.9,4h0.1v-10.3h-23.5l0.1,3.4c0,2.3,0.1,9.3,0.1,21.1c0,11.8,0,27.2-0.1,46.2h23.5v-39.5c0-2.4,0.3-4.4,0.8-5.8
	c1-2.4,2.5-4.5,4.5-6.1c2-1.6,4.5-2.5,7.5-2.5c4.1,0,7.1,1.4,9,4.2c1.9,2.8,2.9,6.7,2.9,11.7v37.8h23.5v-40.6
	C408.7,918.9,406.2,911,401.3,905.6L401.3,905.6z"/>
</svg>
