<?xml version="1.0" encoding="utf-8"?>
<!-- Generator: Adobe Illustrator 18.1.1, SVG Export Plug-In . SVG Version: 6.00 Build 0)  -->
<svg version="1.1" id="Ebene_1" xmlns="http://www.w3.org/2000/svg" xmlns:xlink="http://www.w3.org/1999/xlink" x="0px" y="0px"
	 viewBox="-24 402.3 733.7 169.7" enable-background="new -24 402.3 733.7 169.7" xml:space="preserve">
<g>
	<polygon points="192.4,439.4 186.5,440.8 210.4,480.8 197.4,504.2 204,505.7 238.5,440.8 232.2,439.4 213.7,474.6 	"/>
	<path d="M314.6,439.4l-5.8,1.5v42.2c0,9.3-6.2,17.6-16.6,17.6c-11.3,0-16.6-9-16.6-15.8v-45.5l-5.8,1.5v43.8
		c0,13.6,8.7,21.8,22.4,21.8s22.4-8.1,22.4-21.8L314.6,439.4L314.6,439.4z"/>
	<polygon points="482.3,505 483.4,499.2 451.8,499.2 451.8,475.3 477.5,475.3 477.5,469.5 451.8,469.5 451.8,446.6 481.8,446.6 
		480.7,440.8 446,440.8 446,505 	"/>
	<polygon points="548.1,505 549.9,499.2 526.5,499.2 526.5,439.4 520.8,440.8 520.8,505 	"/>
	<path d="M400.2,506.5l-5.8-1.5v-42.2c0-9.3-6.2-17.6-16.6-17.6c-11.3,0-16.6,9-16.6,15.8v45.5l-5.8-1.5v-43.8
		c0-13.6,8.7-21.8,22.4-21.8s22.4,8.1,22.4,21.8L400.2,506.5L400.2,506.5z"/>
	<path d="M194.9,548.4v-16.2l-2.3,0.4v16L194.9,548.4L194.9,548.4z M214.2,548.4v-10.7l10.2,11h0v-16.2l-2.3,0.4v10.3l-10.2-11h0
		v16.4L214.2,548.4L214.2,548.4z M240.7,546.2c1.4,1.5,2.7,2.6,4.9,2.6c2.8,0,4.9-2,4.9-4.8c0-5.5-7.3-4-7.3-7.2
		c0-1.5,1-2.4,2.5-2.4c1.3,0,2.2,0.9,3.1,1.7l1.5-1.5c-1-1.4-2.7-2.3-4.5-2.3c-2.9,0-4.9,1.7-4.9,4.5c0,5.5,7.3,3.5,7.3,7.2
		c0,2-1.2,2.8-2.9,2.8c-1.3,0-2.4-0.9-3-1.9L240.7,546.2L240.7,546.2z M269.3,548.4v-6h1.2c3.4,0,6.1-1.2,6.1-5.1
		c0-2.7-2.1-4.6-5.4-4.6h-4.3v16.1L269.3,548.4L269.3,548.4z M269.3,534.7h1.8c1.8,0,3.4,0.6,3.4,2.6c0,2.2-1.2,3-3.4,3h-1.8V534.7
		L269.3,534.7z M294.9,548.4v-16.2l-2.3,0.4v16L294.9,548.4L294.9,548.4z M314,548.4v-7.7h0l5.5,8l2.5-0.6l-4.8-6.6
		c2.2-0.5,3.5-1.8,3.5-4.1c0-3.6-2.8-4.8-5.2-4.8h-3.9v16.1L314,548.4L314,548.4z M314,534.7h1.6c1.8,0,3,0.9,3,2.7
		c0,1.7-1.4,2.8-3,2.8H314V534.7L314,534.7z M339.8,548.4v-16.2l-2.3,0.4v16L339.8,548.4L339.8,548.4z M359.1,548.4v-10.7l10.2,11h0
		v-16.2L367,533v10.3l-10.2-11h0v16.4L359.1,548.4L359.1,548.4z M399.7,539.5h-6.2l-0.8,2.1h4.7v3.8c-1,1-2.6,1.4-4,1.4
		c-3.3,0-5.6-3.3-5.6-6c0-3.7,2.8-6.4,6.1-6.4c1.9,0,3.1,0.7,4.3,1.6l1.3-1.5c-1.4-1.4-3.6-2.2-5.8-2.2c-4.7,0-8.2,3.8-8.2,8.5
		c0,4.2,3.7,8.1,8,8.1c2.8,0,5.2-1.1,6.2-2.3L399.7,539.5L399.7,539.5z M437.3,548.4h4.6c2.7,0,5-1.2,5-4.4c0-1.7-0.9-3.4-2.6-3.9
		c1.2-0.8,2.1-1.9,2.1-3.4c0-2.3-1.9-4.2-4.3-4.2h-4.8L437.3,548.4L437.3,548.4z M439.6,541.3h2.1c1.9,0,3.1,0.8,3.1,2.8
		c0,1.8-1.2,2.4-3.1,2.4h-2.1L439.6,541.3L439.6,541.3z M439.6,534.6h2.1c1.6,0,2.5,0.8,2.5,2.2c0,1.6-1.1,2.6-2.5,2.6h-2.1
		L439.6,534.6L439.6,534.6z M465.5,548.4v-16.2l-2.3,0.4v16L465.5,548.4L465.5,548.4z M481.7,540.5c0,4.6,3.7,8.3,8.3,8.3
		c4.6,0,8.3-3.6,8.3-8.3c0-4.7-3.7-8.3-8.3-8.3C485.4,532.3,481.7,535.9,481.7,540.5L481.7,540.5z M483.9,540.5
		c0-3.3,2.7-6.2,6.1-6.2c3.3,0,6.1,2.9,6.1,6.2s-2.7,6.2-6.1,6.2C486.6,546.7,483.9,543.8,483.9,540.5L483.9,540.5z M527.9,539.5
		h-6.2l-0.8,2.1h4.7v3.8c-1,1-2.6,1.4-4,1.4c-3.3,0-5.6-3.3-5.6-6c0-3.7,2.8-6.4,6.1-6.4c1.9,0,3.1,0.7,4.3,1.6l1.3-1.5
		c-1.4-1.4-3.6-2.2-5.8-2.2c-4.7,0-8.2,3.8-8.2,8.5c0,4.2,3.7,8.1,8,8.1c2.8,0,5.2-1.1,6.2-2.3V539.5L527.9,539.5z M547.4,548.4
		v-7.7h0l5.5,8l2.5-0.6l-4.8-6.6c2.2-0.5,3.5-1.8,3.5-4.1c0-3.6-2.8-4.8-5.2-4.8h-3.9v16.1L547.4,548.4L547.4,548.4z M547.4,534.7
		h1.6c1.8,0,3,0.9,3,2.7c0,1.7-1.4,2.8-3,2.8h-1.6V534.7L547.4,534.7z M571.2,548.8l2.7-5.4h6.4l2.7,5.4l2.3-0.5l-8.1-16.1h0
		l-8,16.1L571.2,548.8L571.2,548.8z M574.9,541.3l2.2-4.5l2.3,4.5H574.9L574.9,541.3z M602.7,548.4v-6h1.2c3.4,0,6.1-1.2,6.1-5.1
		c0-2.7-2.1-4.6-5.4-4.6h-4.3v16.1L602.7,548.4L602.7,548.4z M602.7,534.7h1.8c1.8,0,3.4,0.6,3.4,2.6c0,2.2-1.2,3-3.4,3h-1.8V534.7
		L602.7,534.7z M628.5,548.4v-7.2h7.8v7.5l2.3-0.3v-16.2l-2.3,0.4v6.5h-7.8v-6.9l-2.3,0.4v16.1L628.5,548.4L628.5,548.4z
		 M657.8,548.4v-16.2l-2.3,0.4v16L657.8,548.4L657.8,548.4z M683.7,548.4l0.6-2.1h-7.2v-5.1h5.3v-2.1h-5.3v-4.5h6.7l-0.5-2.1h-8.5
		v15.8L683.7,548.4L683.7,548.4z M699.8,546.2c1.4,1.5,2.7,2.6,4.9,2.6c2.8,0,4.9-2,4.9-4.8c0-5.5-7.3-4-7.3-7.2
		c0-1.5,1-2.4,2.5-2.4c1.3,0,2.2,0.9,3.1,1.7l1.5-1.5c-1-1.4-2.7-2.3-4.5-2.3c-2.9,0-4.9,1.7-4.9,4.5c0,5.5,7.3,3.5,7.3,7.2
		c0,2-1.2,2.8-2.9,2.8c-1.3,0-2.4-0.9-3-1.9L699.8,546.2L699.8,546.2z"/>
	<path fill="#0D848A" d="M60.5,572c46.9,0.2,85-37.6,85.2-84.5s-37.6-85-84.5-85.2s-85,37.6-85.2,84.5
		C-24.2,533.7,13.6,571.8,60.5,572"/>
	<path fill="#FFFFFF" d="M86,425.8c-0.1,0-0.1,0-0.2,0c-3.3,0.1-6.6,4.3-6.4,13.2c0.3,8.9,2.7,19.6,6.8,29.9
		c4-7.6,8.4-18.7,7.8-29.9C93.5,430.3,89.6,425.8,86,425.8 M38.1,505.5c-3.8,9-7,19.7-7.4,29.9c-0.3,8.9,3,13.1,6.3,13.2
		c3.6,0.2,7.7-4.3,8.3-13.1C46,525.2,42.6,514.5,38.1,505.5 M37.2,557.4c-0.2,0-0.4,0-0.7,0c-10.6-0.5-15.1-12-14.7-22.4
		c0.5-13.2,5.2-27.6,10.8-39c-4.5-6.8-9.1-11.6-11.5-12.7c-0.7,0.6-2.3,2.5-4.9,7.8l-8-3.9c4.4-9.1,8.2-13,12.6-13h0
		c3.3,0,7.1,2.4,11.6,7.2c1.5,1.6,3.2,3.6,4.9,5.9c2.6-4.1,5.2-7.5,7.5-9.5c2.7-2.4,5.2-3.6,7.6-3.4c4.5,0.2,8.7,4.2,13.5,12.7
		c0.1,0.1,0.2,0.3,0.2,0.5c1.1,1.9,1.9,2.7,2.3,3.1c1.9-1,6.7-5.1,12-12.6c-5.3-11.7-9.5-26.3-9.9-39c-0.3-10.4,4.2-21.8,14.9-22.3
		c8-0.4,16.6,6.9,17.4,21.5c0.8,13.7-4.8,28.6-12.1,40.4c3.9,7.6,7.3,11.3,8.8,12.2c0.7-0.4,2.8-2.1,6.2-8l7.7,4.4
		c-4.9,8.5-9.1,12.4-13.6,12.6c-2.4,0.1-4.8-1-7.3-3.3c-2.4-2.2-4.9-5.6-7.3-9.7c-1.5,1.9-3,3.7-4.5,5.3c-7.3,7.6-11,7.7-12.3,7.6
		c-5,0-8.5-5.3-10.9-9.9c0-0.1-0.1-0.1-0.1-0.2c-2.8-4.6-4.5-6-5.1-6.4c-2,1-5.6,5.6-9.3,12.3c6.6,11.3,12.2,26.1,11.2,40.3
		C53.2,550.3,45.1,557.4,37.2,557.4"/>
</g>
</svg>
