<?xml version="1.0" encoding="utf-8"?>
<!-- Generator: Adobe Illustrator 16.0.0, SVG Export Plug-In . SVG Version: 6.00 Build 0)  -->
<!DOCTYPE svg PUBLIC "-//W3C//DTD SVG 1.1//EN" "http://www.w3.org/Graphics/SVG/1.1/DTD/svg11.dtd">
<svg version="1.1" id="Ebene_1" xmlns="http://www.w3.org/2000/svg" xmlns:xlink="http://www.w3.org/1999/xlink" x="0px" y="0px"
	 width="187.087px" height="187.087px" viewBox="0 0 187.087 187.087" enable-background="new 0 0 187.087 187.087"
	 xml:space="preserve">
<rect fill="none" width="187.087" height="187.087"/>
<path fill="#0D848A" d="M67.955,169.714c-0.236,0-0.471-0.006-0.707-0.018c-11.514-0.593-16.296-12.991-15.865-24.26
	c0.548-14.331,5.641-29.913,11.681-42.166c-4.888-7.381-9.819-12.527-12.397-13.724c-0.754,0.68-2.544,2.72-5.309,8.438
	l-8.622-4.168c4.753-9.83,8.837-14.03,13.646-14.03h0.038c3.544,0.015,7.64,2.565,12.523,7.796c1.667,1.786,3.45,3.939,5.264,6.395
	c2.806-4.492,5.601-8.069,8.068-10.324c2.881-2.635,5.576-3.845,8.231-3.714c4.884,0.248,9.384,4.493,14.59,13.765
	c0.091,0.162,0.171,0.326,0.241,0.493c1.219,2.006,2.07,2.958,2.537,3.389c2.081-1.038,7.244-5.471,12.954-13.652
	c-5.787-12.643-10.335-28.473-10.738-42.218c-0.333-11.271,4.556-23.627,16.074-24.119c8.697-0.383,17.926,7.499,18.809,23.259
	c0.832,14.868-5.169,30.953-13.101,43.773c4.273,8.212,7.925,12.229,9.479,13.172c0.768-0.474,3.013-2.286,6.687-8.699l8.311,4.761
	c-5.286,9.226-9.823,13.432-14.712,13.637c-2.607,0.116-5.211-1.073-7.946-3.619c-2.581-2.401-5.298-6.021-7.936-10.467
	c-1.617,2.062-3.26,3.969-4.895,5.69c-7.855,8.271-11.95,8.287-13.308,8.252c-5.412-0.023-9.156-5.714-11.812-10.669
	c-0.034-0.062-0.066-0.125-0.096-0.188c-3.011-4.987-4.874-6.472-5.537-6.88c-2.137,1.094-6.031,6.096-10.027,13.312
	c7.147,12.25,13.174,28.26,12.177,43.669C85.265,161.926,76.42,169.714,67.955,169.714 M68.946,113.468
	c-4.163,9.739-7.57,21.278-7.993,32.334c-0.366,9.587,3.262,14.148,6.788,14.33c3.871,0.204,8.347-4.69,8.96-14.148
	C77.424,134.813,73.8,123.23,68.946,113.468 M120.765,27.162c-0.064,0-0.128,0.001-0.191,0.004
	c-3.526,0.151-7.193,4.68-6.912,14.268c0.284,9.6,2.916,21.164,7.319,32.373c4.301-8.19,9.11-20.268,8.43-32.415
	C128.889,32.084,124.604,27.162,120.765,27.162"/>
</svg>
